<?xml version="1.0" standalone="no"?>
<!DOCTYPE svg PUBLIC "-//W3C//DTD SVG 20010904//EN"
 "http://www.w3.org/TR/2001/REC-SVG-20010904/DTD/svg10.dtd">
<svg version="1.0" xmlns="http://www.w3.org/2000/svg"
 width="1080.000000pt" height="1080.000000pt" viewBox="0 0 1080.000000 1080.000000"
 preserveAspectRatio="xMidYMid meet">

<g transform="translate(0.000000,1080.000000) scale(0.100000,-0.100000)"
fill="#000000" stroke="none">
<path d="M0 5400 l0 -5400 5400 0 5400 0 0 5400 0 5400 -5400 0 -5400 0 0
-5400z m4108 229 c86 -15 102 -32 102 -108 0 -33 -5 -63 -10 -66 -6 -4 -34 5
-63 19 -66 32 -122 41 -174 27 -89 -24 -58 -69 79 -113 153 -49 203 -92 203
-173 0 -75 -62 -135 -163 -156 -96 -20 -332 9 -354 44 -9 14 -11 129 -2 151 8
22 20 20 59 -10 92 -70 275 -72 275 -4 0 25 -30 45 -116 74 -145 49 -194 87
-201 158 -13 127 146 195 365 157z m662 -9 c13 -20 13 -177 0 -185 -6 -4 -26
7 -45 24 -37 32 -71 45 -102 39 -24 -4 -26 -44 -10 -251 7 -92 9 -173 5 -180
-9 -15 -172 -17 -187 -2 -7 7 -5 74 5 200 8 105 12 200 9 213 -8 34 -53 29
-116 -13 -40 -27 -54 -33 -61 -23 -7 12 -2 145 7 175 6 19 39 21 268 20 181
-2 219 -4 227 -17z m461 -17 c100 -55 156 -175 146 -309 -8 -111 -54 -180
-146 -221 -54 -24 -222 -24 -281 0 -100 41 -150 125 -150 252 0 149 77 266
201 304 19 6 66 9 105 7 57 -2 83 -9 125 -33z m584 22 c85 -22 89 -28 80 -119
-3 -42 -11 -79 -16 -82 -5 -3 -27 10 -49 30 -42 38 -90 52 -147 43 -68 -11
-103 -67 -103 -167 0 -52 4 -64 29 -92 26 -29 35 -33 98 -36 79 -5 115 9 171
61 19 19 35 27 41 21 5 -5 12 -48 15 -95 6 -70 4 -88 -8 -99 -9 -7 -59 -19
-112 -28 -270 -44 -429 68 -411 290 12 141 89 240 217 279 42 13 133 10 195
-6z m323 9 c22 -6 23 -9 16 -88 -5 -67 -4 -84 9 -94 40 -33 116 32 142 122 18
60 27 66 111 66 69 0 88 -15 80 -66 -15 -88 -75 -153 -163 -177 -24 -6 -43
-14 -43 -17 0 -4 22 -12 50 -19 104 -27 172 -111 186 -233 6 -56 6 -58 -20
-68 -29 -11 -103 -12 -150 -1 -27 5 -30 12 -42 70 -21 100 -82 177 -136 169
-23 -3 -23 -4 -20 -120 l3 -116 -55 -7 c-30 -4 -72 -3 -93 2 l-38 9 2 249 c2
277 6 312 31 318 26 7 104 7 130 1z m-2634 -110 c12 -4 16 -20 16 -54 0 -75 4
-80 69 -80 70 0 94 -15 89 -55 -3 -29 -4 -30 -68 -33 -36 -2 -69 -7 -75 -13
-5 -5 -10 -35 -10 -65 0 -57 -11 -74 -50 -74 -37 0 -48 16 -54 81 l-6 64 -70
5 c-69 5 -70 6 -73 35 -5 40 19 55 90 55 l58 0 1 33 c2 98 23 124 83 101z"/>
<path d="M5051 5487 c-54 -27 -85 -115 -70 -200 12 -74 82 -113 153 -83 44 18
66 61 66 128 -1 74 -30 135 -74 153 -42 18 -45 18 -75 2z"/>
</g>
</svg>
